<svg xmlns="http://www.w3.org/2000/svg" xmlns:xlink="http://www.w3.org/1999/xlink"><symbol id="icon-modal-close"><path clip-rule="evenodd" d="M.177 1.031a.604.604 0 01.854-.854l8.97 8.969 8.968-8.97a.604.604 0 01.854.855L10.854 10l8.97 8.969a.604.604 0 11-.855.854L10 10.854l-8.969 8.97a.604.604 0 11-.854-.855L9.146 10 .177 1.031z"/></symbol><symbol id="logo" viewBox="0 0 152 63"><path d="M0 0h151.9v63.1H0z" fill="#c00"/><path d="M131 48.3a6.6 6.6 0 116.6 6.4 6.55 6.55 0 01-6.6-6.4"/><ellipse cx="137.6" cy="48.3" rx="6.6" ry="6.4"/><path d="M132 9h11.8v29.5H132zm-64 5.6c1.2 1.5 1.7 4.2 1.7 6.6l-.1 19.3c-.2 5-3.1 10.5-7.7 12.2-4.6 2.1-11.8 1.8-15.8-1.3a13.65 13.65 0 01-5.5-10.6V19.3c.3-3.1 1.9-6.3 4.5-7.8a12.76 12.76 0 016.2-2.1c4.8-.5 13.2-.5 16.7 5.2m-11.2 5.3a2.53 2.53 0 00-2.5-.4 2.18 2.18 0 00-1.4 1.8v19a2 2 0 001.5 1.7 3.65 3.65 0 001.8 0 2 2 0 001.2-1.9V21.4a1.75 1.75 0 00-.6-1.5m65-10.7c.3.1 7.1 44.3 7.1 44.5h-11.2l-1.2-6.6H108l-1.3 6.6H95.2s8.5-44.4 8.4-44.5c-.1.1 18.2 0 18.2 0m-7.2 28.2s-2.5-12.7-2.5-12.8 0-.2-2.6 12.8h5.1m-28.3 4.8h7.2v11.6H74.2V9.3h12c.1 0 .1 32.9.1 32.9M20 25.2h4.8V9.4h11.7v44.4H24.8l.1-17.4h-4.7l-.1 17.4h-12V9.4H20v15.8z"/></symbol><symbol id="toggle-close-menu" viewBox="0 0 256 256"><path d="M128 53.333v149.334M53.333 128h149.334" stroke="#fff" stroke-width="14.933338" stroke-linecap="round" stroke-linejoin="round" stroke-miterlimit="10" font-family="none" font-weight="none" font-size="none" text-anchor="none"/></symbol><symbol id="toggle-open-menu" viewBox="0 0 32.5 26.5"><path d="M0 .5h21v8H0z"/><circle cx="28" cy="4.5" r="4.5"/><path d="M0 11.5h32v6H0zM0 20.5h32v6H0z"/></symbol><symbol id="toggle-search" viewBox="0 0 256 256"><g transform="scale(10.66667)" fill="none" stroke="#fff" stroke-linecap="round" stroke-linejoin="round" stroke-miterlimit="10" font-family="none" font-weight="none" font-size="none" text-anchor="none"><circle cx="11" cy="11" r="8"/><path d="M21 21l-4.35-4.35"/></g></symbol></svg>